<svg width="33" height="33" viewBox="0 0 33 33" fill="none" xmlns="http://www.w3.org/2000/svg">
<g filter="url(#filter0_f_702_25)">
<path d="M24.95 12.324C24.9399 11.5666 24.7981 10.8168 24.531 10.108C24.2993 9.51015 23.9455 8.9672 23.4922 8.51383C23.0388 8.06046 22.4958 7.70665 21.898 7.475C21.1983 7.21236 20.4592 7.07034 19.712 7.055C18.75 7.012 18.445 7 16.003 7C13.561 7 13.248 7 12.293 7.055C11.5462 7.07045 10.8073 7.21247 10.108 7.475C9.51006 7.70649 8.96702 8.06024 8.51363 8.51363C8.06024 8.96702 7.70649 9.51006 7.475 10.108C7.21183 10.8071 7.07012 11.5461 7.056 12.293C7.013 13.256 7 13.561 7 16.003C7 18.445 7 18.757 7.056 19.713C7.071 20.461 7.212 21.199 7.475 21.9C7.70688 22.4978 8.0609 23.0406 8.51444 23.4938C8.96798 23.947 9.51106 24.3006 10.109 24.532C10.8064 24.8052 11.5454 24.9574 12.294 24.982C13.257 25.025 13.562 25.038 16.004 25.038C18.446 25.038 18.759 25.038 19.714 24.982C20.4612 24.9673 21.2004 24.8256 21.9 24.563C22.4977 24.3311 23.0405 23.9772 23.4938 23.5238C23.9472 23.0705 24.3011 22.5277 24.533 21.93C24.796 21.23 24.937 20.492 24.952 19.743C24.995 18.781 25.008 18.476 25.008 16.033C25.006 13.591 25.006 13.281 24.95 12.324ZM15.997 20.621C13.443 20.621 11.374 18.552 11.374 15.998C11.374 13.444 13.443 11.375 15.997 11.375C17.2231 11.375 18.399 11.8621 19.266 12.729C20.1329 13.596 20.62 14.7719 20.62 15.998C20.62 17.2241 20.1329 18.4 19.266 19.267C18.399 20.1339 17.2231 20.621 15.997 20.621ZM20.804 12.282C20.6624 12.2821 20.5222 12.2543 20.3913 12.2002C20.2605 12.1461 20.1416 12.0667 20.0414 11.9666C19.9413 11.8664 19.8619 11.7475 19.8078 11.6167C19.7537 11.4858 19.7259 11.3456 19.726 11.204C19.726 11.0625 19.7539 10.9224 19.808 10.7917C19.8622 10.6609 19.9415 10.5421 20.0416 10.4421C20.1416 10.342 20.2604 10.2627 20.3912 10.2085C20.5219 10.1544 20.662 10.1265 20.8035 10.1265C20.945 10.1265 21.0851 10.1544 21.2158 10.2085C21.3466 10.2627 21.4654 10.342 21.5654 10.4421C21.6655 10.5421 21.7448 10.6609 21.799 10.7917C21.8531 10.9224 21.881 11.0625 21.881 11.204C21.881 11.8 21.399 12.282 20.804 12.282Z" fill="#FDDA60"/>
<path d="M15.9971 19.0011C17.6557 19.0011 19.0001 17.6566 19.0001 15.9981C19.0001 14.3396 17.6557 12.9951 15.9971 12.9951C14.3386 12.9951 12.9941 14.3396 12.9941 15.9981C12.9941 17.6566 14.3386 19.0011 15.9971 19.0011Z" fill="#FDDA60"/>
</g>
<path d="M24.95 12.324C24.9399 11.5666 24.7981 10.8168 24.531 10.108C24.2993 9.51015 23.9455 8.9672 23.4922 8.51383C23.0388 8.06046 22.4958 7.70665 21.898 7.475C21.1983 7.21236 20.4592 7.07034 19.712 7.055C18.75 7.012 18.445 7 16.003 7C13.561 7 13.248 7 12.293 7.055C11.5462 7.07045 10.8073 7.21247 10.108 7.475C9.51006 7.70649 8.96702 8.06024 8.51363 8.51363C8.06024 8.96702 7.70649 9.51006 7.475 10.108C7.21183 10.8071 7.07012 11.5461 7.056 12.293C7.013 13.256 7 13.561 7 16.003C7 18.445 7 18.757 7.056 19.713C7.071 20.461 7.212 21.199 7.475 21.9C7.70688 22.4978 8.0609 23.0406 8.51444 23.4938C8.96798 23.947 9.51106 24.3006 10.109 24.532C10.8064 24.8052 11.5454 24.9574 12.294 24.982C13.257 25.025 13.562 25.038 16.004 25.038C18.446 25.038 18.759 25.038 19.714 24.982C20.4612 24.9673 21.2004 24.8256 21.9 24.563C22.4977 24.3311 23.0405 23.9772 23.4938 23.5238C23.9472 23.0705 24.3011 22.5277 24.533 21.93C24.796 21.23 24.937 20.492 24.952 19.743C24.995 18.781 25.008 18.476 25.008 16.033C25.006 13.591 25.006 13.281 24.95 12.324ZM15.997 20.621C13.443 20.621 11.374 18.552 11.374 15.998C11.374 13.444 13.443 11.375 15.997 11.375C17.2231 11.375 18.399 11.8621 19.266 12.729C20.1329 13.596 20.62 14.7719 20.62 15.998C20.62 17.2241 20.1329 18.4 19.266 19.267C18.399 20.1339 17.2231 20.621 15.997 20.621ZM20.804 12.282C20.6624 12.2821 20.5222 12.2543 20.3913 12.2002C20.2605 12.1461 20.1416 12.0667 20.0414 11.9666C19.9413 11.8664 19.8619 11.7475 19.8078 11.6167C19.7537 11.4858 19.7259 11.3456 19.726 11.204C19.726 11.0625 19.7539 10.9224 19.808 10.7917C19.8622 10.6609 19.9415 10.5421 20.0416 10.4421C20.1416 10.342 20.2604 10.2627 20.3912 10.2085C20.5219 10.1544 20.662 10.1265 20.8035 10.1265C20.945 10.1265 21.0851 10.1544 21.2158 10.2085C21.3466 10.2627 21.4654 10.342 21.5654 10.4421C21.6655 10.5421 21.7448 10.6609 21.799 10.7917C21.8531 10.9224 21.881 11.0625 21.881 11.204C21.881 11.8 21.399 12.282 20.804 12.282Z" fill="#FDDA60"/>
<path d="M15.9971 19.0011C17.6557 19.0011 19.0001 17.6566 19.0001 15.9981C19.0001 14.3396 17.6557 12.9951 15.9971 12.9951C14.3386 12.9951 12.9941 14.3396 12.9941 15.9981C12.9941 17.6566 14.3386 19.0011 15.9971 19.0011Z" fill="#FDDA60"/>
<defs>
<filter id="filter0_f_702_25" x="0" y="0" width="32.008" height="32.038" filterUnits="userSpaceOnUse" color-interpolation-filters="sRGB">
<feFlood flood-opacity="0" result="BackgroundImageFix"/>
<feBlend mode="normal" in="SourceGraphic" in2="BackgroundImageFix" result="shape"/>
<feGaussianBlur stdDeviation="3.5" result="effect1_foregroundBlur_702_25"/>
</filter>
</defs>
</svg>
